<svg width="1440" height="1021" viewBox="0 0 1440 1021" fill="none" xmlns="http://www.w3.org/2000/svg">
<g clip-path="url(#clip0_11_153)">
<path d="M350.75 205.822C350.665 205.505 350.387 205.876 350.75 205.822V205.822Z" fill="black"/>
<path d="M943.709 335.571C943.723 335.602 943.75 335.557 943.772 335.566C944.297 334.325 944.722 333.244 945.036 332.415C944.628 333.482 944.184 334.535 943.709 335.571Z" fill="black"/>
<path d="M990.234 319.151C990.53 319.142 990.722 319.115 990.996 319.106C990.521 318.452 990.211 317.694 990.234 319.151Z" fill="black"/>
<path d="M723.046 237.241C722.306 236.631 721.701 236.582 721.14 236.721C721.755 236.788 722.36 236.9 723.046 237.241Z" fill="black"/>
<path d="M132.606 171.836C132.606 171.836 132.839 171.674 133.014 171.558C132.556 171.441 132.117 171.401 131.62 171.213L132.606 171.836Z" fill="black"/>
<path d="M133.865 168.904C136.488 168.976 133.91 170.921 133.014 171.553C136.165 172.324 138.724 171.509 140.97 169.769C140.222 167.828 135.533 169.926 133.865 168.9V168.904Z" fill="black"/>
<path d="M674.082 327.273C673.531 327.121 672.971 326.852 672.442 326.74C673.114 327.278 673.634 327.35 674.082 327.273Z" fill="black"/>
<path d="M945.036 332.415C945.188 332.016 945.341 331.613 945.484 331.205C945.332 331.617 945.188 331.998 945.036 332.415Z" fill="black"/>
<path d="M1077.74 267.453C1078.3 268.292 1078.92 268.857 1079.52 269.3C1079.63 269.233 1079.71 269.193 1079.77 269.17L1077.74 267.458V267.453Z" fill="black"/>
<path d="M1203.76 206.181C1203.66 205.791 1203.76 205.32 1203.56 204.957C1200.96 205.276 1195.48 208.378 1188.71 212.721L1190.43 216.415L1203.76 206.181H1203.76Z" fill="black"/>
<path d="M1382.99 206.06L1366.07 206.966C1404.64 178.672 1427.85 173.884 1459.1 146.81L1458.11 149.499C1464.15 147.971 1457.38 130.672 1524.94 115.073L1525.37 115.763C1527.23 114.445 1526.36 113.069 1531.37 112.518L1519.1 114.257C1523.8 108.941 1526.81 102.508 1534.22 97.2682C1536.33 97.0216 1537.77 98.0929 1538.62 99.1015L1556.8 86.241L1565.36 87.1196C1569.63 81.1174 1561.16 73.3222 1579.87 69.001C1569.99 66.0694 1585.1 60.3273 1581.14 58.1801C1582.42 58.5073 1584.94 58.6149 1587.05 58.8525C1595.77 52.4021 1611.94 39.8464 1614.14 33.8353C1614.14 33.8353 1569.66 42.3342 1555.65 41.3301C1569.69 35.0949 1558.57 38.4165 1554.65 37.7979L1554.8 39.9585C1546.06 43.1635 1543.5 39.0351 1538.92 40.2902C1539.12 40.6219 1539.49 40.9491 1539.86 41.2943L1540.01 40.4336C1540.82 40.9357 1540.92 41.5722 1540.77 42.2446C1541.41 43.0694 1541.48 43.9883 1539.21 45.0462L1539.35 44.3648C1536.48 46.9737 1530.49 49.7887 1527.88 50.999L1525.7 47.5788C1524.02 57.705 1480.87 61.4793 1473.02 66.0381C1462.58 66.4863 1456.33 77.8676 1445.31 81.6822C1429.2 90.1229 1434.48 81.4267 1424.9 83.2467C1413.89 87.0748 1429.34 86.0572 1425.61 88.6885L1411.05 91.0643C1417.53 86.4831 1412.59 86.6624 1410.53 86.0931C1400.15 91.7098 1380.45 95.1658 1381.63 103.952C1366.08 109.026 1364.34 106.287 1358.34 109.532C1361.06 109.586 1365.61 108.34 1366.51 109.707C1359.21 110.021 1364.39 112.061 1367.02 111.366C1360.62 119.47 1316.41 125.351 1319.36 133.985L1318.5 132.604C1320.07 139.418 1326.53 142.977 1322.7 149.656L1317.3 149.521L1313 155.528C1307.99 156.106 1308.97 153.426 1308.54 152.735C1300.71 161.176 1285.64 166.233 1273.74 172.553L1295.34 180.397C1283.51 182.827 1261.66 186.404 1262.8 192.536L1253.81 190.967C1228.38 193.101 1242.96 203.604 1233.41 205.415L1220.23 205.814L1229.94 199.928C1218.52 203.066 1213.52 203.622 1203.55 204.738C1203.59 204.792 1203.52 204.886 1203.56 204.94C1204.24 204.845 1204.74 204.899 1205.03 205.191L1203.76 206.163C1204.33 209.687 1200.48 214.729 1193.55 218.759C1183.4 223.959 1178.41 232.781 1159.29 236.394L1159 244.521L1145.29 248.277L1142.46 243.705C1153.98 236.945 1174.27 221.973 1188.71 212.699L1187.68 210.453C1179.03 215.819 1170.44 223.941 1164.44 227.025C1161.09 227.841 1151.01 227.5 1154.27 221.216L1151.7 228.997C1123.14 247.398 1123.08 247.735 1089.74 261.227L1093.78 261.9C1088.64 266.951 1083.48 271.958 1079.52 269.269C1060.95 279.722 1040.42 288.459 1025.09 289.947L1025.85 296.926C1021.84 298.997 1011.07 294.407 1013.88 303.099L1007.19 310.535C1001.71 313.359 1000.41 318.42 992.551 319.012H992.511C992.027 319.048 991.516 319.084 990.996 319.07C991.099 319.236 991.22 319.357 991.341 319.478C978.046 324.422 994.447 324.234 978.991 329.519C972.276 328.381 978.422 339.332 971.071 342.196L959.663 338.574C957.825 338.946 956.26 339.412 954.893 339.964C954.212 340.241 953.58 340.537 952.984 340.856C952.836 340.936 952.692 341.017 952.549 341.098C952.446 341.156 952.347 341.214 952.244 341.272C952.19 341.304 952.141 341.344 952.096 341.389C951.742 341.752 951.684 342.555 951.563 343.586C951.446 344.616 951.276 345.876 950.783 347.095C950.299 348.31 949.474 349.498 948.255 350.26C947.64 349.803 947.12 349.036 946.735 347.992C945.977 345.509 945.677 342.676 945.637 339.757C945.587 336.835 945.771 333.814 945.686 330.815C945.744 333.137 945.628 334.607 945.543 335.624C945.448 336.642 945.363 337.202 945.278 337.61C945.188 338.018 945.094 338.274 944.906 338.65C944.713 339.022 944.449 339.529 943.866 340.358C944.287 336.776 944.713 336.171 945.3 333.051C945.381 331.98 945.453 331.675 945.404 331.76C945.363 331.85 945.215 332.339 945.022 332.939C944.641 334.141 944.045 335.768 943.772 335.53C942.521 338.507 940.728 342.286 939.011 345.271L938.693 345.822L938.536 346.091C938.482 346.181 938.438 346.271 938.348 346.338C938.034 346.634 937.725 346.916 937.425 347.185C936.824 347.718 936.255 348.185 935.726 348.557C934.668 349.305 933.776 349.686 933.153 349.511L935.089 352.627C926.039 352.237 917.056 349.848 909.574 342.814L911.273 340.022L901.174 337.157L902.326 333.114L888.354 328.062L889.726 329.932C886.341 328.968 875.386 325.467 870.374 320.76L871.558 318.77C857.872 304.506 840.135 306.68 820.25 298.307L824.795 295.223C820.098 287.89 819.923 300.952 812.961 295.151L814.997 289.718C804.808 293.376 806.632 284.066 803.024 279.229L802.091 287.145L793.686 281.493C784.748 274.585 791.575 269.968 794.704 267.041L785.389 269.309L786.868 262.626C782.749 265.006 781.637 264.145 780.248 262.662C779.553 261.918 778.786 261.021 777.545 260.29C776.922 259.927 776.177 259.605 775.263 259.367C774.806 259.246 774.304 259.147 773.757 259.076C773.483 259.04 773.197 259.008 772.896 258.986L772.784 258.977C772.784 258.977 772.762 258.995 772.753 259.004L772.695 259.067L772.569 259.206C773.076 258.045 773.551 257.17 773.9 256.435C774.254 255.709 774.51 255.108 774.68 254.615C774.353 255.158 774.008 255.669 773.631 256.175C773.255 256.677 772.842 257.175 772.421 257.637C772.21 257.865 771.991 258.098 771.758 258.327L771.583 258.502L771.493 258.587C771.462 258.614 771.448 258.654 771.35 258.636L770.426 258.574L763.035 258.08L768.154 259.071L770.713 259.564C770.74 259.564 770.767 259.578 770.789 259.578L770.816 259.555L770.87 259.51L770.982 259.421L771.197 259.246L771.61 258.901C769.817 261.617 767.979 264.307 766.087 266.96C765.885 267.104 765.693 267.238 765.509 267.359L765.37 267.449C765.303 267.462 765.2 267.449 765.119 267.449C764.949 267.44 764.778 267.431 764.608 267.427C763.94 267.386 763.321 267.31 762.748 267.207C761.6 267.001 760.627 266.682 759.789 266.279C758.108 265.472 756.956 264.338 755.957 263.132C753.957 260.721 752.586 258.027 748.888 257.13L754.567 257.516C743.674 252.885 745.526 249.111 741.366 243.615C742.007 246.26 743.029 250.245 738.439 248.631C735.296 247.121 738.851 244.74 736.78 242.006C732.441 246.923 723.637 245.041 719.173 238.232C719.778 237.519 720.414 236.878 721.154 236.667C718.971 236.443 717.2 237.259 715.331 234.072L721.064 229.235L711.848 231.248C709.436 227.178 701.292 227.94 704.528 224.237L707.361 224.43L681.546 204.509L684.459 199.484C677.287 204.213 671.577 186.924 666.812 195.719C664.83 187.771 644.726 185.145 654.068 177.963C636.949 165.107 621.309 167.429 602.993 148.177C602.738 146.662 602.204 145.164 601.447 143.681C601.07 142.941 600.631 142.201 600.147 141.471L599.963 141.197L599.869 141.058L599.82 140.991L599.721 140.888C599.443 140.606 599.161 140.319 598.874 140.027C598.3 139.454 597.704 138.871 597.085 138.284C592.154 133.599 585.973 128.615 579.254 123.581C572.53 118.542 565.272 113.455 558.118 108.501C550.955 103.544 543.895 98.725 537.422 94.1214C535.091 95.4213 532.953 96.5913 530.891 97.694C517.34 106.646 505.305 114.696 494.094 122.241C488.558 125.979 483.156 129.623 477.817 133.223C476.504 134.11 475.191 134.998 473.886 135.881L472.909 136.54L472.42 136.872L472.178 137.038L472.044 137.141L471.026 137.921C469.673 138.961 468.319 139.996 466.965 141.031C456.135 149.315 445.171 157.541 431.481 167.187C407.472 165.686 390.412 196.118 367.963 200.385L366.717 204.146L366.094 206.029C365.928 206.634 365.534 207.365 365.771 207.737C363.382 206.074 362.149 205.863 360.984 206.41C360.405 206.679 359.859 207.136 359.271 207.643C358.689 208.149 358.07 208.714 357.42 209.162C356.622 208.866 355.775 208.364 355.04 207.472C354.309 206.58 353.69 205.298 353.484 203.505C352.749 204.433 352.122 204.971 351.664 205.303C351.203 205.63 350.911 205.746 350.754 205.773C350.844 206.096 350.754 207.163 349.679 210.363C349.495 209.619 349.123 209.158 348.697 208.777L348.657 208.741L348.648 208.732L348.607 208.709L348.531 208.665L348.222 208.485L347.599 208.131C347.182 207.898 346.765 207.66 346.353 207.427C345.523 206.961 344.716 206.499 343.963 206.029C340.964 204.142 338.938 202.129 340.767 199.296L342.381 199.309C346.052 193.648 325.311 194.544 322.057 186.539L322.111 194.527L312.832 188.704L316.055 188.731C293.835 185.942 279.706 178.407 266.684 170.383C263.438 168.357 260.238 166.354 257.019 164.341C255.406 163.341 253.783 162.351 252.138 161.378C251.313 160.889 250.484 160.41 249.65 159.93L249.493 159.84L249.238 159.706L248.686 159.415L247.584 158.832C246.844 158.446 246.104 158.056 245.36 157.671C239.398 154.582 233.199 151.548 226.722 148.674C220.249 145.805 213.494 143.093 206.528 140.686C200.01 143.977 193.228 147.702 186.41 151.852C188.427 149.006 188.678 148.141 187.777 148.356C186.885 148.567 184.89 149.844 182.613 151.198C178.045 153.914 172.447 156.922 170.775 152.982C168.152 152.529 165.597 152.453 163.145 152.664C162.531 152.718 161.926 152.789 161.325 152.874C161.186 152.892 161.003 152.928 160.9 152.933H160.635C160.46 152.946 160.285 152.955 160.115 152.969C159.429 153.027 158.77 153.143 158.134 153.318C155.601 154.013 153.485 155.573 151.576 157.509C147.761 161.382 144.776 166.761 140.983 169.72C141.131 170.114 141.199 170.612 140.939 171.414L125.554 176.103C130.727 162.611 117.889 188.56 122.896 176.856C80.8766 184.01 32.6487 210.933 -14.0194 224.488L-11.0519 226.344C-22.7425 230.167 -35.8585 238.702 -46.1505 237.824C-56.4425 236.959 -62.7584 251.608 -65.9859 253.293C-73.8662 261.371 -85.9154 255.732 -81.639 254.642C-91.402 259.73 -97.5432 272.586 -113.228 273.953C-121.301 267.198 -148.783 296.926 -152.845 287.419L-152.692 288.293C-173.429 288.315 -186.222 306.344 -208.115 307.537C-208.115 307.537 -208.007 306.685 -207.59 305.788L-236.422 350.144L-212.943 378.16L-168.556 391.392L-77.1026 350.538L1.44547 332.715L181.927 260.931L192.17 248.77C193.501 248.748 194.837 248.689 196.168 248.604C197.051 248.479 196.966 248.707 197.186 248.815L197.679 249.178C198.307 249.644 198.836 250.03 199.297 250.339C200.221 250.953 200.893 251.258 201.534 251.294C202.386 252.11 203.206 252.352 204.246 252.522L204.64 252.58L204.69 252.589H204.717L204.887 252.665L205.591 252.966L206.994 253.571C208.872 254.373 210.75 255.176 212.628 255.978C216.389 257.583 220.159 259.192 223.898 260.837C238.86 267.418 253.397 274.585 265.482 284.389L269.158 278.727C279.764 283.402 277.254 286.8 279.325 289.095C283.969 291.238 288.617 293.39 293.27 295.537C295.601 296.604 297.936 297.666 300.267 298.733L303.773 300.324L309.811 303.135C327.207 311.248 344.528 319.272 361.705 327.202C375.449 318.958 389.188 310.719 402.918 302.485C406.316 300.441 409.718 298.401 413.116 296.357L415.658 294.829L417.159 293.901L419.898 292.197C423.547 289.925 427.191 287.656 430.836 285.393C445.408 276.333 459.932 267.332 474.397 258.515C488.862 249.698 503.269 241.069 517.609 232.74C519.402 231.7 521.195 230.665 522.984 229.634L525.001 228.473L525.557 228.164C526.301 227.751 527.045 227.357 527.785 226.989C529.264 226.25 530.721 225.6 532.088 225.102C533.518 226.42 534.836 227.783 535.93 229.132C536.476 229.809 536.969 230.477 537.391 231.14L537.467 231.266L537.507 231.328C537.507 231.328 537.507 231.337 537.543 231.369L537.7 231.494L538.955 232.503C539.789 233.175 540.623 233.852 541.452 234.524C543.106 235.878 544.756 237.232 546.401 238.581C551.587 247.533 576.488 261.541 579.868 269.556C610.457 280.695 637.89 299.71 663.383 318.313L661.979 318.241L674.943 325.615C675.149 326.426 674.759 327.121 674.078 327.278C680.421 328.99 686.934 332.778 693.411 337.561C696.648 339.95 699.875 342.59 703.067 345.347C704.662 346.723 706.249 348.131 707.823 349.547L708.414 350.081L709.549 351C710.311 351.609 711.068 352.219 711.83 352.824C713.354 354.048 714.874 355.272 716.389 356.491C718.774 357.831 721.149 359.162 723.498 360.485C724.094 360.812 724.686 361.139 725.278 361.466C725.592 361.668 725.901 361.87 726.215 362.067C726.824 362.462 727.43 362.852 728.035 363.242C730.446 364.797 732.809 366.303 735.104 367.711L733.71 367.868C766.414 383.418 798.935 397.497 831.264 411.196C847.441 418.019 863.538 424.805 879.613 431.583C883.629 433.282 887.641 434.985 891.653 436.684L894.661 437.962L895.414 438.28L896.499 438.755L899.246 439.974L910.22 444.838C924.824 451.32 939.321 457.788 953.768 464.279C971.447 453.054 989.037 441.973 1006.7 430.973C1009.24 429.391 1011.79 427.804 1014.35 426.217C1016.78 424.72 1019.22 423.223 1021.66 421.721C1026.55 418.736 1031.46 415.773 1036.4 412.832C1056.17 401.079 1076.38 389.725 1097.3 378.94C1149.99 359.153 1196.66 312.508 1255.3 286.885C1268.7 286.428 1375.01 214.689 1382.99 206.06Z" fill="black"/>
<path d="M1272.99 172.952C1273.24 172.822 1273.49 172.696 1273.73 172.571L1268.96 170.845L1272.99 172.952Z" fill="black"/>
<path d="M1415.9 81.6822C1408.96 84.9455 1409.01 85.712 1410.52 86.1065C1412.95 84.7976 1414.89 83.3452 1415.9 81.6822Z" fill="black"/>
<path d="M368.084 345.881C366.802 345.074 366.076 345.258 368.084 345.881V345.881Z" fill="black"/>
<path d="M969.964 492.376C970.206 492.429 970.336 492.389 970.578 492.42C971.178 491.138 971.73 490.031 972.236 489.202L969.968 492.376H969.964Z" fill="black"/>
<path d="M1040.06 478.242C1040.34 478.291 1040.51 478.309 1040.77 478.354C1040.43 477.623 1040.25 476.825 1040.06 478.242Z" fill="black"/>
<path d="M736.933 477.458C736.067 477.274 735.552 477.516 735.153 477.906C735.682 477.677 736.229 477.484 736.933 477.458Z" fill="black"/>
<path d="M169.892 396.193C169.892 396.193 170.12 396.063 170.291 395.969C169.878 395.794 169.479 395.695 169.04 395.444L169.892 396.188V396.193Z" fill="black"/>
<path d="M171.308 393.468C173.715 393.884 171.174 395.462 170.295 395.973C173.128 397.148 175.558 396.682 177.776 395.261C177.252 393.248 172.756 394.7 171.308 393.472V393.468Z" fill="black"/>
<path d="M734.83 579.835C734.315 579.965 733.741 579.992 733.261 580.144C734.037 580.297 734.494 580.113 734.83 579.835Z" fill="black"/>
<path d="M972.232 489.202L973.11 488.014C972.828 488.278 972.541 488.704 972.232 489.202Z" fill="black"/>
<path d="M1127.85 446.003C1128.25 446.931 1128.75 447.604 1129.23 448.15C1129.34 448.106 1129.42 448.083 1129.48 448.074L1127.85 445.999V446.003Z" fill="black"/>
<path d="M1252.43 412.344C1252.39 411.949 1252.55 411.51 1252.41 411.115C1249.97 410.891 1244.5 412.783 1237.66 415.611L1238.72 419.538L1252.43 412.344Z" fill="black"/>
<path d="M1369.23 498.212L1360.18 485.127C1401.64 499.982 1416.87 515.918 1453.75 525.578L1451.12 526.318C1455.31 530.307 1465.72 514.977 1511.36 560.399L1511.02 561.138C1512.98 561.882 1513.65 560.399 1516.55 564.11L1509.13 555.235C1515.67 555.979 1522.26 554.719 1530.07 557.687C1531.31 559.242 1531.16 561.013 1530.78 562.268L1549.94 569.538L1553.46 576.926C1560.33 576.935 1562.35 565.666 1574.99 578.244C1572.45 568.624 1584.45 577.5 1584.2 573.08C1584.57 574.295 1585.73 576.388 1586.58 578.226C1595.99 581.552 1613.92 587.384 1619.78 585.721C1619.78 585.721 1591.14 554.795 1585.04 542.961C1596.9 550.689 1588.79 543.643 1587.36 540.142L1585.71 541.496C1578.86 536.296 1580.88 531.88 1577.63 528.908C1577.47 529.263 1577.39 529.747 1577.29 530.235L1578.05 529.868C1578.05 530.814 1577.59 531.253 1576.98 531.508C1576.64 532.495 1575.95 533.077 1573.99 531.863L1574.6 531.58C1571.12 530.764 1565.94 527.555 1563.69 526.143L1565.33 522.431C1556.46 526.869 1532.23 494.321 1524.74 490.618C1519.25 482.478 1507.13 483.948 1498.68 477.265C1484.05 469.133 1493.55 468.407 1487.39 461.742C1478.93 455.072 1487.35 466.923 1483.42 465.426L1474.37 455.076C1481.2 457.667 1478.62 453.794 1478.06 451.813C1468.49 446.676 1456.05 432.802 1449.65 438.773C1437.97 429.162 1439.28 426.199 1433.75 423.227C1435.04 425.446 1438.28 428.396 1437.63 429.897C1433.79 424.214 1434.72 429.534 1436.57 431.256C1426.98 430.736 1400.55 398.546 1395.15 405.848L1395.83 404.374C1391.19 409.529 1391.54 416.759 1384.35 417.49L1381.79 413.07L1374.91 413.047C1371.98 409.345 1374.59 408.601 1374.93 407.866C1373.76 407.704 1372.58 407.444 1371.4 407.108C1371.1 407.023 1370.8 406.933 1370.5 406.839C1370.2 406.74 1369.95 406.664 1369.5 406.494C1368.69 406.189 1367.88 405.871 1367.07 405.53C1363.81 404.176 1360.48 402.54 1357.07 400.729C1350.27 397.121 1343.07 392.782 1335.92 388.833C1334 389.411 1332.1 390.007 1330.23 390.635C1332.2 392.011 1334.04 393.436 1335.75 394.915C1339.11 400.868 1341.97 406.593 1344.34 412.088C1341.9 409.856 1338.87 407.077 1335.5 404.154C1332.82 404.154 1329.95 404.248 1327.08 404.477C1324.22 404.705 1321.37 405.073 1318.83 405.597C1313.74 406.651 1309.94 408.314 1309.71 410.766C1308.21 410.268 1306.67 409.789 1305.09 409.327C1304.29 409.094 1303.48 408.87 1302.67 408.646C1302.44 408.596 1302.31 408.516 1302.14 408.448L1301.63 408.238L1300.62 407.821C1276.92 404.705 1288.87 417.848 1279.83 417.656L1267.63 415.356L1277.4 411.635C1266.45 412.344 1261.76 411.868 1252.43 410.914C1252.45 410.976 1252.38 411.053 1252.41 411.111C1253.04 411.156 1253.5 411.313 1253.72 411.653L1252.42 412.339C1252.45 415.867 1248.2 419.964 1241.26 422.461C1231.19 425.428 1225.36 432.95 1207.25 432.56L1205.85 440.369L1192.71 441.211L1190.74 436.209C1202.29 432.013 1223.06 421.641 1237.65 415.607L1237.01 413.218C1228.3 416.651 1219.26 422.77 1213.3 424.536C1210.1 424.644 1200.87 422.264 1204.76 416.835L1201.3 423.85C1172.44 435.85 1172.34 436.164 1139.75 442.44L1143.38 443.914C1137.93 447.76 1132.5 451.557 1129.22 448.146C1110.67 454.489 1090.54 458.761 1076.22 457.08L1075.95 463.996C1071.97 465.184 1062.69 458.546 1064.07 467.538L1056.87 473.374C1051.43 474.992 1049.53 479.627 1042.21 478.601L1042.17 478.596C1041.72 478.533 1041.24 478.462 1040.77 478.345C1040.84 478.524 1040.93 478.668 1041.03 478.811C1028.09 480.887 1043.22 484.051 1028.25 486.019C1022.23 483.549 1026.35 495.406 1019.19 496.683L1009.19 490.851C1002.22 490.793 999.046 493.084 995.447 496.253C993.645 497.84 991.735 499.642 989.185 501.48C987.912 502.399 986.477 503.326 984.814 504.241L984.501 504.411L984.42 504.456L984.379 504.478L984.371 504.487L984.33 504.523L984.169 504.671C984.057 504.765 983.94 504.855 983.815 504.94C983.564 505.11 983.286 505.258 982.981 505.379C982.165 504.833 981.435 503.945 980.838 502.793C980.242 501.641 979.785 500.225 979.435 498.638C978.727 495.473 978.507 491.627 977.916 488.162C978.171 489.659 978.279 490.829 978.368 491.73C978.503 493.774 978.454 494.438 978.373 495.002C978.324 495.285 978.256 495.54 978.122 495.921C977.987 496.302 977.799 496.818 977.436 497.598C977.369 494.142 977.692 493.447 977.84 490.363C977.777 489.345 977.804 489.036 977.768 489.135C977.745 489.179 977.75 489.336 977.674 489.543C977.27 489.713 976.921 489.955 976.589 490.233C975.258 491.336 974.164 492.945 970.564 492.416C967.704 498.579 964.078 508.495 961.68 508.629L964.244 510.96C956.184 513.479 947.631 514.089 939.11 509.817L939.827 506.635L930.158 507.146L930.051 502.954L916.374 502.632L918.096 503.963C914.855 504.133 904.258 504.317 898.552 501.462L899.04 499.198C883.06 490.067 868.084 497.781 848.289 496.208L851.426 491.838C845.263 486.396 848.737 498.817 841.013 495.549L841.291 489.758C833.357 496.473 832.375 487.077 827.866 483.652L829.247 491.443L820.295 488.776C810.527 485.091 815.243 478.542 817.18 474.772L809.626 479.892L809.071 473.092C803.149 480.223 804.212 471.258 794.946 474.365C794.52 471.769 796.909 470.59 794.054 469.165L778.477 476.821L787.693 473.701L785.483 483.28C775.523 489.569 773.295 480.766 766.482 482.707L771.296 480.353C760.421 481.456 760.345 477.26 754.621 474.405C756.261 476.427 758.781 479.443 754.338 480.205C751.129 480.367 753.034 476.592 750.183 475.167C748.708 481.55 740.702 484.074 734.171 480.21C734.364 479.3 734.615 478.43 735.135 477.897C733.252 478.735 732.145 480.295 729.272 478.381L731.926 471.406L725.229 477.552C721.535 475.122 715.188 479.654 716.277 474.867L718.679 473.692L689.13 468.439L689.395 462.643C685.517 470.205 673.544 457.721 673.352 467.708C668.376 461.661 650.804 468.9 655.426 458.151C654.924 458.07 654.426 457.994 653.933 457.931C653.714 457.905 653.498 457.878 653.279 457.851C653.247 457.851 653.216 457.846 653.185 457.846C653.059 457.846 652.934 457.873 652.804 457.922C652.544 458.021 652.261 458.214 651.947 458.465C651.661 458.644 651.347 458.868 651.002 459.115C650.818 459.245 650.638 459.37 650.455 459.496L650.163 459.693C650.105 459.724 650.078 459.765 649.997 459.783L649.392 459.689C646.156 459.187 642.915 458.702 639.593 457.958C632.95 456.475 625.975 453.969 618.068 448.298C613.899 436.222 591.177 430.018 577.411 423.142C548.194 415.181 528.919 410.968 499.45 401.895C487.585 382.499 455.243 388.281 439.846 373.668L432.786 376.425C428.33 369.997 420.458 367.2 411.968 364.165C407.723 362.65 403.322 361.076 399.112 358.961C398.059 358.432 397.019 357.867 395.997 357.266C395.486 356.966 394.979 356.652 394.477 356.329L393.729 355.836L393.357 355.581C393.285 355.536 393.254 355.505 393.151 355.442L392.81 355.245C389.152 353.147 385.544 350.829 381.962 348.216C377.838 347.736 374.83 347.293 372.602 346.894C370.379 346.495 368.945 346.145 368.071 345.876C369.397 346.705 371.294 348.593 371.222 352.192C367.743 349.588 362.288 347.306 357.59 345.038C354.479 345.647 351.642 346.082 349.652 345.867C347.666 345.652 346.5 344.796 346.828 342.806L349.163 341.51C349.517 339.695 347.912 339.439 345.124 340.022C342.341 340.605 338.409 342.026 334.178 343.55C329.937 345.074 325.41 346.701 321.21 347.759C320.945 347.822 320.685 347.889 320.425 347.952L320.161 348.01L319.946 348.055C319.659 348.108 319.376 348.158 319.094 348.194C318.534 348.265 317.982 348.297 317.449 348.274C316.382 348.234 315.387 347.987 314.495 347.467L319.381 353.635L309.371 354.9L311.635 352.909C273.314 378.944 248.704 361.673 212.615 385.722C215.963 376.815 205.806 391.67 203.206 383.507C190.592 375.587 185.258 390.41 177.758 395.247C177.862 395.655 177.88 396.157 177.575 396.915L163.002 399.519C168.923 386.883 154.87 410.806 160.487 399.913C144.345 400.546 126.957 404.329 109.009 409.067C100.035 411.438 90.9266 414.047 81.7642 416.62C77.183 417.907 72.5884 419.184 67.9937 420.421C65.6942 421.04 63.3991 421.645 61.0995 422.237C59.952 422.528 58.8 422.819 57.6525 423.111L56.5542 423.38L55.9894 423.514L55.4874 423.581L55.2363 423.613L54.7433 423.685C53.7257 423.833 52.7037 423.976 51.6906 424.124C49.6555 424.406 47.6294 424.675 45.6078 424.922C41.5645 425.415 37.5436 425.827 33.5542 426.141L35.9299 428.571C24.6876 429.862 11.3475 435.451 2.17165 432.448C-7.01314 429.454 -15.2118 442.431 -18.4258 443.403C-26.9382 449.639 -36.9074 441.619 -32.8462 441.453C-42.5554 444.381 -50.3013 455.645 -64.7487 453.704C-70.9256 445.425 -100.869 468.699 -102.94 458.572L-102.949 459.456C-121.754 455.148 -136.398 470.07 -156.453 466.663C-156.453 466.663 -156.211 465.857 -155.682 465.068L-189.297 502.287L-172.747 534.53L-134.744 556.714L-44.9267 535.937L29.3002 534.947L51.9686 530.773L63.305 528.684L68.9709 527.64L71.8039 527.12L77.2009 526.179L81.1143 525.157L83.7186 524.453L87.7171 523.359L95.714 521.176L111.703 516.806L143.682 508.064L207.644 490.582L218.124 479.927C255.491 484.567 295.345 458.424 334.402 458.626L333.532 451.938C338.651 450.446 341.292 450.75 343.004 451.49C343.86 451.858 344.488 452.337 345.075 452.754C345.371 452.96 345.653 453.153 345.954 453.31C346.106 453.386 346.258 453.458 346.42 453.516C346.5 453.543 346.581 453.57 346.666 453.592L346.796 453.624L346.859 453.637L346.872 453.664C347.679 453.35 348.518 452.992 349.419 452.584C350.109 452.723 350.835 452.853 351.611 452.992L351.902 453.041L352.05 453.068L352.126 453.081H352.162C352.162 453.081 352.153 453.081 352.202 453.099L352.328 453.149L356.38 454.704L364.489 457.801C375.319 461.899 386.144 465.991 396.952 470.079C418.571 478.229 440.097 486.346 461.223 494.635C503.48 511.216 544.151 528.501 580.813 548.157C583.593 551.469 590.146 554.849 596.933 558.184C598.632 559.018 600.335 559.856 602.012 560.676C602.845 561.093 603.67 561.506 604.477 561.914C604.88 562.12 605.279 562.326 605.674 562.528C605.871 562.631 606.068 562.734 606.261 562.837L606.552 562.989L606.624 563.03L606.75 563.093L607.028 563.227C612.985 566.078 618.292 568.794 622.219 571.242C624.451 571.86 626.159 572.479 627.446 573.134C631.063 573.044 634.645 572.986 638.195 572.954L639.526 572.945H639.692L639.782 572.932L639.957 572.909L640.306 572.869L641.705 572.712C642.637 572.618 643.569 572.524 644.506 572.434C648.245 572.089 651.988 571.865 655.731 571.735C663.221 571.484 670.72 571.632 678.184 572.062C693.115 572.923 707.917 574.909 722.279 577.029L721.1 577.634L734.826 577.957C735.337 578.571 735.314 579.369 734.817 579.831C750.828 575.751 774.263 584.43 792.736 589.047L791.557 589.643C823.702 593.803 855.304 596.707 886.641 599.294C902.313 600.553 917.912 601.804 933.48 603.055C941.262 603.696 949.039 604.337 956.812 604.978L962.639 605.48L964.199 605.619L966.871 605.888L972.205 606.43C979.292 607.161 986.383 607.896 993.475 608.627C1007.73 602.826 1021.99 597.026 1036.29 591.207C1046.45 587.128 1056.67 583.148 1066.99 579.297C1087.63 571.592 1108.64 564.397 1130.27 557.956C1181.55 549.528 1231.02 513.86 1288.6 501C1291.84 501.601 1301.64 498.763 1314.48 494.128C1317.69 492.972 1321.09 491.699 1324.62 490.34C1326.39 489.655 1328.19 488.955 1330.03 488.243C1330.94 487.879 1331.86 487.516 1332.79 487.149L1333.14 487.01L1333.31 486.943V486.934C1333.26 486.889 1333.21 486.736 1333.26 486.459C1333.29 486.234 1333.41 485.974 1333.64 485.719L1333.73 485.625L1333.78 485.575L1333.8 485.553L1333.82 485.54C1333.82 485.54 1333.81 485.531 1333.84 485.54L1333.99 485.598C1335.6 486.23 1337.17 486.853 1338.7 487.463C1341.78 488.668 1344.72 489.807 1347.48 490.856C1358.51 495.052 1366.67 497.844 1369.24 498.198L1369.23 498.212Z" fill="black"/>
<path d="M1329.22 390.957C1329.57 390.845 1329.91 390.742 1330.23 390.639C1328.93 389.725 1327.57 388.837 1326.15 387.967C1327.22 388.949 1328.24 389.944 1329.22 390.957Z" fill="black"/>
<path d="M418.289 757.829C417.007 757.022 416.281 757.206 418.289 757.829V757.829Z" fill="black"/>
<path d="M1020.17 904.324C1020.41 904.378 1020.54 904.337 1020.78 904.369C1021.38 903.087 1021.93 901.979 1022.44 901.15L1020.17 904.324H1020.17Z" fill="black"/>
<path d="M1090.27 890.19C1090.54 890.24 1090.72 890.258 1090.98 890.302C1090.63 889.572 1090.45 888.774 1090.27 890.19Z" fill="black"/>
<path d="M787.137 889.406C786.272 889.222 785.757 889.464 785.358 889.854C785.887 889.626 786.434 889.433 787.137 889.406Z" fill="black"/>
<path d="M220.096 808.141C220.096 808.141 220.325 808.011 220.495 807.917C220.083 807.742 219.684 807.644 219.245 807.393L220.096 808.137V808.141Z" fill="black"/>
<path d="M221.513 805.416C223.92 805.833 221.378 807.411 220.5 807.922C223.333 809.096 225.762 808.63 227.981 807.209C227.457 805.196 222.961 806.649 221.513 805.42V805.416Z" fill="black"/>
<path d="M785.035 991.783C784.52 991.913 783.946 991.94 783.466 992.093C784.242 992.245 784.699 992.061 785.035 991.783Z" fill="black"/>
<path d="M1022.44 901.15L1023.32 899.962C1023.03 900.227 1022.75 900.653 1022.44 901.15Z" fill="black"/>
<path d="M1178.05 857.952C1178.46 858.88 1178.95 859.552 1179.43 860.099C1179.54 860.054 1179.63 860.032 1179.69 860.023L1178.05 857.947V857.952Z" fill="black"/>
<path d="M1302.63 824.292C1302.6 823.898 1302.75 823.458 1302.62 823.064C1300.18 822.84 1294.7 824.731 1287.87 827.56L1288.93 831.486L1302.63 824.292Z" fill="black"/>
<path d="M1419.44 910.16L1410.39 897.076C1451.85 911.931 1467.08 927.866 1503.95 937.526L1501.33 938.266C1505.52 942.255 1515.92 926.925 1561.56 972.347L1561.22 973.087C1563.19 973.831 1563.85 972.347 1566.76 976.058L1559.34 967.183C1565.87 967.927 1572.46 966.667 1580.27 969.635C1581.51 971.19 1581.37 972.961 1580.98 974.216L1600.15 981.487L1603.66 988.874C1610.53 988.883 1612.55 977.614 1625.19 990.192C1622.66 980.572 1634.66 989.448 1634.41 985.028C1634.78 986.243 1635.93 988.336 1636.78 990.174C1646.2 993.5 1664.13 999.332 1669.98 997.669C1669.98 997.669 1641.34 966.744 1635.24 954.91C1647.11 962.638 1639 955.591 1637.56 952.09L1635.92 953.444C1629.07 948.244 1631.09 943.829 1627.84 940.857C1627.68 941.211 1627.6 941.695 1627.5 942.184L1628.26 941.816C1628.26 942.762 1627.8 943.201 1627.19 943.457C1626.85 944.443 1626.16 945.026 1624.2 943.811L1624.81 943.528C1621.33 942.713 1616.14 939.503 1613.89 938.091L1615.53 934.38C1606.67 938.817 1582.44 906.269 1574.95 902.567C1569.45 894.426 1557.34 895.897 1548.88 889.213C1534.25 881.082 1543.76 880.356 1537.6 873.69C1529.14 867.02 1537.55 878.872 1533.62 877.375L1524.57 867.024C1531.4 869.615 1528.82 865.742 1528.26 863.761C1518.7 858.624 1506.25 844.751 1499.85 850.721C1488.17 841.111 1489.49 838.148 1483.95 835.176C1485.25 837.395 1488.48 840.344 1487.84 841.846C1484 836.162 1484.92 841.483 1486.77 843.204C1477.18 842.684 1450.76 810.495 1445.35 817.797L1446.03 816.322C1441.39 821.477 1441.75 828.707 1434.55 829.438L1432 825.018L1425.11 824.996C1422.18 821.293 1424.8 820.549 1425.13 819.814C1423.97 819.653 1422.79 819.393 1421.6 819.056C1421.3 818.971 1421.01 818.882 1420.71 818.787C1420.4 818.689 1420.15 818.613 1419.7 818.442C1418.9 818.137 1418.09 817.819 1417.28 817.479C1414.02 816.125 1410.69 814.489 1407.28 812.678C1400.48 809.069 1393.28 804.73 1386.13 800.781C1384.21 801.359 1382.31 801.955 1380.44 802.583C1382.41 803.959 1384.25 805.385 1385.96 806.864C1389.32 812.817 1392.18 818.541 1394.55 824.037C1392.11 821.804 1389.08 819.025 1385.71 816.102C1383.03 816.102 1380.15 816.197 1377.29 816.425C1374.43 816.654 1371.58 817.021 1369.04 817.546C1363.95 818.599 1360.14 820.262 1359.92 822.714C1358.42 822.217 1356.88 821.737 1355.29 821.275C1354.5 821.042 1353.69 820.818 1352.88 820.594C1352.65 820.545 1352.52 820.464 1352.35 820.397L1351.84 820.186L1350.83 819.769C1327.13 816.654 1339.08 829.797 1330.04 829.604L1317.84 827.304L1327.61 823.584C1316.65 824.292 1311.97 823.817 1302.64 822.862C1302.66 822.925 1302.59 823.001 1302.62 823.059C1303.25 823.104 1303.71 823.261 1303.93 823.602L1302.63 824.288C1302.66 827.815 1298.41 831.912 1291.47 834.409C1281.39 837.377 1275.57 844.898 1257.46 844.508L1256.06 852.317L1242.92 853.16L1240.95 848.157C1252.5 843.962 1273.27 833.589 1287.86 827.555L1287.22 825.166C1278.51 828.6 1269.47 834.719 1263.51 836.485C1260.31 836.592 1251.08 834.212 1254.97 828.784L1251.51 835.799C1222.65 847.799 1222.55 848.112 1189.96 854.388L1193.59 855.863C1188.14 859.709 1182.71 863.506 1179.43 860.094C1160.88 866.437 1140.75 870.709 1126.43 869.028L1126.15 875.945C1122.18 877.133 1112.9 870.494 1114.28 879.486L1107.08 885.322C1101.64 886.941 1099.74 891.575 1092.42 890.549L1092.38 890.544C1091.93 890.482 1091.45 890.41 1090.98 890.293C1091.05 890.473 1091.14 890.616 1091.24 890.76C1078.3 892.835 1093.43 896 1078.46 897.968C1072.44 895.498 1076.56 907.354 1069.4 908.632L1059.4 902.8C1052.43 902.742 1049.26 905.032 1045.66 908.201C1043.85 909.788 1041.94 911.59 1039.39 913.428C1038.12 914.347 1036.69 915.275 1035.02 916.189L1034.71 916.36L1034.63 916.404L1034.59 916.427L1034.58 916.436L1034.54 916.472L1034.38 916.62C1034.27 916.714 1034.15 916.803 1034.02 916.889C1033.77 917.059 1033.5 917.207 1033.19 917.328C1032.37 916.781 1031.64 915.893 1031.05 914.741C1030.45 913.589 1029.99 912.173 1029.64 910.586C1028.94 907.421 1028.72 903.575 1028.12 900.11C1028.38 901.607 1028.49 902.777 1028.58 903.678C1028.71 905.722 1028.66 906.386 1028.58 906.951C1028.53 907.233 1028.47 907.489 1028.33 907.87C1028.2 908.251 1028.01 908.766 1027.65 909.546C1027.58 906.09 1027.9 905.395 1028.05 902.311C1027.99 901.294 1028.01 900.984 1027.98 901.083C1027.95 901.128 1027.96 901.285 1027.88 901.491C1027.48 901.661 1027.13 901.903 1026.8 902.181C1025.47 903.284 1024.37 904.893 1020.77 904.364C1017.91 910.528 1014.29 920.443 1011.89 920.578L1014.45 922.909C1006.39 925.428 997.841 926.038 989.319 921.766L990.037 918.583L980.368 919.094L980.26 914.903L966.584 914.58L968.305 915.911C965.064 916.082 954.467 916.265 948.761 913.41L949.25 911.146C933.269 902.015 918.293 909.73 898.498 908.156L901.636 903.786C895.472 898.344 898.946 910.765 891.223 907.498L891.501 901.706C883.567 908.421 882.585 899.025 878.075 895.601L879.456 903.392L870.504 900.724C860.737 897.04 865.452 890.491 867.389 886.721L859.836 891.84L859.28 885.04C853.358 892.172 854.421 883.206 845.155 886.313C844.73 883.718 847.119 882.539 844.263 881.113L828.686 888.769L837.903 885.65L835.693 895.229C825.732 901.518 823.505 892.714 816.691 894.655L821.505 892.302C810.631 893.404 810.554 889.209 804.83 886.353C806.471 888.375 808.99 891.392 804.548 892.154C801.338 892.315 803.243 888.541 800.392 887.115C798.918 893.499 790.912 896.022 784.381 892.158C784.573 891.248 784.824 890.379 785.344 889.845C783.462 890.683 782.355 892.243 779.481 890.329L782.135 883.354L775.438 889.5C771.744 887.07 765.397 891.602 766.486 886.815L768.889 885.641L739.34 880.387L739.604 874.591C735.727 882.153 723.754 869.669 723.561 879.656C718.585 873.609 701.014 880.849 705.635 870.099C705.133 870.019 704.636 869.943 704.143 869.88C703.923 869.853 703.708 869.826 703.488 869.799C703.457 869.799 703.425 869.795 703.394 869.795C703.268 869.795 703.143 869.822 703.013 869.871C702.753 869.969 702.471 870.162 702.157 870.413C701.87 870.593 701.556 870.817 701.211 871.063C701.027 871.193 700.848 871.319 700.664 871.444L700.373 871.641C700.314 871.673 700.288 871.713 700.207 871.731L699.602 871.637C696.365 871.135 693.124 870.651 689.803 869.907C683.16 868.423 676.185 865.917 668.277 860.247C664.109 848.171 641.386 841.967 627.621 835.091C598.403 827.13 579.128 822.916 549.66 813.843C537.794 794.447 505.452 800.23 490.055 785.616L482.995 788.373C478.539 781.945 470.668 779.148 462.178 776.113C457.933 774.598 453.531 773.025 449.322 770.909C448.268 770.38 447.228 769.815 446.206 769.215C445.695 768.914 445.189 768.601 444.687 768.278L443.938 767.785L443.566 767.529C443.494 767.484 443.463 767.453 443.36 767.39L443.019 767.193C439.361 765.095 435.753 762.778 432.171 760.164C428.047 759.685 425.04 759.241 422.812 758.842C420.588 758.443 419.154 758.093 418.28 757.824C419.607 758.654 421.503 760.541 421.431 764.14C417.953 761.536 412.497 759.254 407.8 756.986C404.689 757.596 401.851 758.031 399.861 757.815C397.875 757.6 396.71 756.744 397.037 754.754L399.372 753.458C399.727 751.643 398.122 751.387 395.334 751.97C392.55 752.553 388.619 753.974 384.387 755.498C380.147 757.022 375.619 758.649 371.419 759.707C371.155 759.77 370.895 759.837 370.635 759.9L370.37 759.958L370.155 760.003C369.868 760.057 369.586 760.106 369.303 760.142C368.743 760.214 368.192 760.245 367.658 760.223C366.591 760.182 365.596 759.936 364.704 759.416L369.59 765.584L359.581 766.848L361.844 764.858C323.523 790.892 298.913 773.621 262.824 797.67C266.173 788.763 256.015 803.618 253.415 795.456C240.801 787.535 235.467 802.359 227.968 807.196C228.071 807.603 228.089 808.105 227.784 808.863L213.211 811.467C219.133 798.831 205.08 822.755 210.696 811.862C194.555 812.494 177.167 816.277 159.219 821.015C150.244 823.387 141.136 825.995 131.974 828.568C127.392 829.855 122.798 831.132 118.203 832.37C115.903 832.988 113.608 833.593 111.309 834.185C110.161 834.476 109.009 834.768 107.862 835.059L106.764 835.328L106.199 835.463L105.697 835.53L105.446 835.561L104.953 835.633C103.935 835.781 102.913 835.924 101.9 836.072C99.8649 836.355 97.8387 836.624 95.8171 836.87C91.7738 837.363 87.7529 837.776 83.7635 838.089L86.1392 840.519C74.8969 841.81 61.5568 847.4 52.381 844.396C43.1962 841.402 34.9975 854.379 31.7835 855.352C23.2711 861.587 13.3019 853.568 17.3631 853.402C7.65385 856.329 -0.0920258 867.594 -14.5394 865.653C-20.7163 857.373 -50.6599 880.647 -52.7309 870.521L-52.7398 871.404C-71.5442 867.096 -86.1888 882.019 -106.244 878.612C-106.244 878.612 -106.002 877.805 -105.473 877.016L-139.088 914.235L-122.538 946.478L-84.5347 968.662L5.28256 947.885L79.5095 946.895L102.178 942.722L113.514 940.633L119.18 939.588L122.013 939.068L127.41 938.127L131.324 937.105L133.928 936.401L137.926 935.307L145.923 933.124L161.913 928.754L193.891 920.013L257.853 902.531L268.333 891.876C305.7 896.515 345.555 870.373 384.611 870.575L383.742 863.887C388.861 862.394 391.501 862.699 393.213 863.438C394.07 863.806 394.693 864.286 395.284 864.702C395.58 864.909 395.863 865.101 396.163 865.258C396.315 865.335 396.468 865.406 396.629 865.464C396.71 865.491 396.79 865.518 396.876 865.541L397.006 865.572L397.068 865.586L397.082 865.612C397.889 865.299 398.727 864.94 399.628 864.532C400.318 864.671 401.044 864.801 401.82 864.94L402.111 864.989L402.259 865.016L402.335 865.03H402.371C402.371 865.03 402.362 865.03 402.412 865.048L402.537 865.097L406.589 866.652L414.698 869.75C425.528 873.847 436.354 877.939 447.161 882.028C468.781 890.177 490.306 898.295 511.432 906.583C553.689 923.164 594.36 940.449 631.023 960.105C633.802 963.418 640.356 966.798 647.142 970.133C648.841 970.966 650.544 971.805 652.221 972.625C653.055 973.042 653.879 973.454 654.686 973.862C655.09 974.068 655.489 974.274 655.883 974.476C656.08 974.579 656.278 974.682 656.47 974.785L656.762 974.938L656.833 974.978L656.959 975.041L657.237 975.175C663.194 978.026 668.502 980.743 672.428 983.19C674.661 983.809 676.368 984.428 677.655 985.082C681.272 984.992 684.854 984.934 688.404 984.903L689.735 984.894H689.901L689.991 984.88L690.166 984.858L690.515 984.817L691.914 984.661C692.846 984.566 693.779 984.472 694.716 984.383C698.454 984.038 702.197 983.813 705.94 983.683C713.43 983.432 720.93 983.58 728.393 984.011C743.325 984.871 758.126 986.857 772.488 988.977L771.309 989.582L785.035 989.905C785.546 990.519 785.524 991.317 785.026 991.779C801.038 987.7 824.473 996.378 842.945 1001L841.767 1001.59C873.911 1005.75 905.513 1008.66 936.851 1011.24C952.522 1012.5 968.121 1013.75 983.689 1015C991.471 1015.64 999.248 1016.29 1007.02 1016.93L1012.85 1017.43L1014.41 1017.57L1017.08 1017.84L1022.41 1018.38C1029.5 1019.11 1036.59 1019.84 1043.68 1020.57C1057.94 1014.77 1072.2 1008.97 1086.5 1003.16C1096.66 999.076 1106.88 995.096 1117.2 991.245C1137.84 983.54 1158.85 976.345 1180.48 969.904C1231.75 961.477 1281.23 925.809 1338.81 912.948C1342.05 913.549 1351.85 910.712 1364.69 906.077C1367.9 904.92 1371.3 903.647 1374.83 902.289C1376.6 901.603 1378.4 900.904 1380.24 900.191C1381.15 899.828 1382.07 899.465 1383 899.097L1383.35 898.958L1383.52 898.891V898.882C1383.47 898.837 1383.42 898.685 1383.47 898.407C1383.5 898.183 1383.62 897.923 1383.85 897.667L1383.94 897.573L1383.99 897.524L1384.01 897.501L1384.03 897.488C1384.03 897.488 1384.02 897.479 1384.05 897.488L1384.2 897.546C1385.81 898.178 1387.38 898.801 1388.91 899.411C1391.99 900.617 1394.93 901.755 1397.69 902.804C1408.72 907 1416.88 909.793 1419.44 910.147L1419.44 910.16Z" fill="black"/>
<path d="M1379.43 802.906C1379.77 802.794 1380.11 802.69 1380.44 802.587C1379.13 801.673 1377.77 800.785 1376.35 799.916C1377.42 800.897 1378.44 801.893 1379.43 802.906Z" fill="black"/>
<path d="M390.327 517.07C389.663 516.51 389.107 516.761 390.327 517.07V517.07Z" fill="black"/>
<path d="M979.112 717.342C979.296 717.365 979.39 717.311 979.574 717.307C979.897 715.957 980.193 714.796 980.475 713.909C980.031 715.052 979.579 716.195 979.117 717.342H979.112Z" fill="black"/>
<path d="M1066.22 710.592C1066.46 710.668 1066.63 710.695 1066.85 710.762C1066.56 710.009 1066.42 709.207 1066.22 710.592Z" fill="black"/>
<path d="M764.442 671.647C763.631 671.266 763.066 671.378 762.577 671.665C763.156 671.566 763.738 671.513 764.442 671.647Z" fill="black"/>
<path d="M177.279 548.712C177.279 548.712 177.512 548.574 177.682 548.47C177.252 548.318 176.84 548.242 176.378 548.013L177.283 548.712H177.279Z" fill="black"/>
<path d="M178.619 545.906C181.107 546.193 178.561 547.91 177.678 548.466C180.632 549.488 183.106 548.887 185.33 547.345C184.716 545.36 180.157 547.058 178.619 545.902V545.906Z" fill="black"/>
<path d="M739.026 770.878C738.47 770.878 737.887 770.761 737.363 770.793C738.12 771.133 738.623 771.07 739.026 770.878Z" fill="black"/>
<path d="M980.471 713.913L980.986 712.627C980.811 712.923 980.646 713.38 980.471 713.913Z" fill="black"/>
<path d="M1144.95 677.421C1145.49 678.277 1146.07 678.873 1146.61 679.353C1146.71 679.299 1146.78 679.263 1146.84 679.25L1144.95 677.425L1144.95 677.421Z" fill="black"/>
<path d="M1251.33 615.176C1251.15 614.822 1251.13 614.364 1250.86 614.046C1249.7 614.373 1248.04 615.449 1246.03 617.072C1245.02 617.883 1243.93 618.829 1242.75 619.887C1241.56 620.922 1240.29 622.043 1238.96 623.258L1241.32 626.57C1244.75 622.881 1248.02 618.995 1251.33 615.176Z" fill="black"/>
<path d="M1362.09 655.416L1357.38 648.786L1356.2 647.127L1355.61 646.298C1355.57 646.231 1355.5 646.15 1355.48 646.101L1355.51 645.971L1355.55 645.711C1355.64 645.012 1355.71 644.294 1355.74 643.564C1356.04 643.568 1356.33 643.591 1356.62 643.618C1357.25 643.855 1357.88 644.093 1358.5 644.33C1359.13 644.572 1359.75 644.814 1360.37 645.056C1362.83 646.025 1365.21 646.993 1367.51 647.961C1372.09 649.898 1376.35 651.834 1380.39 653.753C1388.46 657.594 1395.61 661.377 1402.62 664.995C1416.63 672.234 1430.05 678.81 1449 683.871L1446.32 684.584C1450.65 688.64 1461.15 673.346 1508.41 719.516L1508.08 720.256C1510.1 721.027 1510.76 719.543 1513.78 723.304L1506.08 714.299C1512.79 715.119 1519.52 713.931 1527.56 717.002C1528.84 718.58 1528.72 720.359 1528.34 721.614L1548.05 729.141L1551.73 736.604C1558.77 736.689 1560.72 725.389 1573.81 738.168C1571.11 728.473 1583.5 737.527 1583.2 733.081C1583.59 734.309 1584.8 736.42 1585.69 738.281C1595.37 741.728 1613.81 747.793 1619.79 746.188C1619.79 746.188 1590.1 714.783 1583.72 702.819C1595.96 710.717 1587.57 703.545 1586.06 700.008L1584.39 701.353C1577.32 696.05 1579.34 691.635 1575.97 688.614C1575.81 688.968 1575.73 689.452 1575.64 689.945L1576.41 689.582C1576.42 690.532 1575.96 690.971 1575.34 691.218C1575 692.209 1574.3 692.782 1572.28 691.541L1572.91 691.267C1569.33 690.407 1563.98 687.125 1561.66 685.682L1563.3 681.97C1554.26 686.332 1529.07 653.345 1521.36 649.535C1515.63 641.287 1503.23 642.636 1494.5 635.818C1479.41 627.48 1489.14 626.857 1482.76 620.089C1474.02 613.293 1482.77 625.297 1478.73 623.746L1469.34 613.244C1476.36 615.924 1473.67 612.002 1473.08 610.007C1463.22 604.736 1450.31 590.651 1443.83 596.582C1431.75 586.792 1433.06 583.829 1427.36 580.776C1428.71 583.018 1432.06 586.025 1431.41 587.527C1427.41 581.771 1428.43 587.128 1430.34 588.881C1425.42 588.567 1416.11 580.247 1407.34 572.914C1402.95 569.247 1398.7 565.827 1395.21 563.783C1394.78 563.527 1394.35 563.294 1393.94 563.084C1393.84 563.03 1393.73 562.981 1393.63 562.931C1393.48 562.859 1393.33 562.792 1393.19 562.721C1392.87 562.577 1392.56 562.438 1392.26 562.304C1391.06 561.779 1389.95 561.385 1388.99 561.138C1387.06 560.645 1385.66 560.766 1384.95 561.658L1385.5 560.125C1384.18 561.34 1383.39 562.783 1382.75 564.245C1382.13 565.706 1381.66 567.185 1381.05 568.494C1379.84 571.121 1378.04 573.071 1373.73 573.111C1372.3 571.372 1370.8 569.601 1369.25 567.808C1366.41 567.548 1363.65 567.333 1360.98 567.154C1358.52 564.85 1357.9 563.487 1357.96 562.622C1358.01 561.752 1358.73 561.371 1358.76 560.945C1354.39 560.036 1349.67 558.189 1344.6 555.764C1342.07 554.553 1339.46 553.195 1336.77 551.752C1335.43 551.03 1334.07 550.281 1332.7 549.519C1332.02 549.134 1331.33 548.753 1330.64 548.367L1329.6 547.785L1329.08 547.493H1328.62C1324.19 551.649 1319.61 555.876 1315.32 560.286C1321.91 561.9 1327.66 564.473 1332.57 568.001C1330.3 569.001 1327.46 570.247 1324.38 571.807C1321.29 573.362 1317.96 575.236 1314.88 577.298C1311.77 579.328 1308.88 581.503 1306.91 583.609C1304.94 585.716 1303.88 587.711 1304.31 589.41C1301.32 589.679 1298.19 590.105 1294.93 590.683C1293.26 591.467 1291.69 592.22 1290.27 592.973C1289.55 593.359 1288.8 593.785 1288.12 594.188L1287.99 594.264C1287.95 594.287 1287.93 594.296 1287.89 594.309L1287.71 594.39C1287.59 594.444 1287.46 594.498 1287.35 594.551C1287.11 594.663 1286.89 594.771 1286.67 594.874C1284.9 595.735 1283.64 596.591 1282.73 597.434C1280.92 599.119 1280.56 600.76 1280.64 602.297C1280.72 603.839 1281.26 605.278 1281.25 606.556C1281.25 607.197 1281.11 607.793 1280.71 608.344C1280.31 608.882 1279.63 609.366 1278.58 609.788C1274.51 610.68 1270.48 611.554 1266.45 612.401L1273.96 605.224C1269.06 607.667 1265.52 609.209 1262.08 610.473C1258.68 611.764 1255.28 612.656 1250.83 613.858C1250.88 613.907 1250.85 614.001 1250.89 614.05C1251.49 613.867 1251.97 613.853 1252.29 614.091L1251.36 615.18C1252.03 616.807 1251.76 618.945 1250.64 621.281C1250.08 622.451 1249.3 623.666 1248.33 624.889C1247.84 625.508 1247.3 626.109 1246.69 626.696C1246.09 627.288 1245.44 627.875 1244.74 628.453C1242.65 629.982 1240.91 631.685 1239.2 633.478C1238.36 634.379 1237.51 635.289 1236.64 636.212C1236.2 636.674 1235.76 637.145 1235.3 637.602C1234.83 638.055 1234.35 638.503 1233.85 638.956C1231.87 640.758 1229.62 642.537 1226.79 644.187C1225.38 645.012 1223.83 645.801 1222.1 646.545C1220.36 647.253 1218.41 647.894 1216.27 648.477C1216.61 651.076 1216.94 653.69 1217.25 656.312L1211.17 658.553L1205.03 660.624L1201.8 656.326C1203.01 655.469 1204.34 654.483 1205.76 653.399C1206.47 652.865 1207.19 652.278 1207.91 651.659C1208.64 651.045 1209.39 650.409 1210.16 649.759C1211.7 648.454 1213.29 647.074 1214.92 645.644C1215.74 644.926 1216.56 644.205 1217.4 643.47C1217.81 643.102 1218.24 642.739 1218.65 642.358C1219.06 641.972 1219.47 641.587 1219.89 641.201C1223.19 638.117 1226.58 634.966 1229.84 631.927C1233.06 628.839 1236.15 625.849 1238.99 623.267L1237.56 621.254C1235.86 622.756 1234.19 624.419 1232.58 626.127C1231.77 626.983 1230.98 627.848 1230.19 628.708C1229.8 629.139 1229.42 629.569 1229.03 629.999C1228.64 630.416 1228.25 630.824 1227.86 631.232C1224.78 634.491 1221.94 637.463 1219.46 639.18C1218.73 639.44 1217.6 639.664 1216.36 639.754C1215.09 639.821 1213.71 639.749 1212.48 639.453C1210.02 638.862 1208.2 637.364 1209.15 634.303L1208.1 641.833C1206.65 643.026 1205.3 644.142 1204.02 645.195C1203.38 645.72 1202.76 646.231 1202.16 646.728C1201.55 647.204 1200.95 647.665 1200.37 648.114C1198.06 649.902 1196.01 651.475 1194.13 652.892C1190.39 655.765 1187.2 657.809 1183.9 659.768C1182.24 660.745 1180.55 661.682 1178.73 662.642C1176.9 663.587 1174.88 664.479 1172.65 665.479C1170.42 666.47 1167.94 667.541 1165.12 668.711C1162.27 669.8 1159.08 671.019 1155.43 672.414L1159.11 673.297C1158.03 674.44 1156.95 675.587 1155.86 676.614C1154.79 677.654 1153.69 678.492 1152.63 679.151C1150.5 680.446 1148.46 680.823 1146.64 679.362C1145.62 679.895 1144.6 680.419 1143.57 680.939C1142.55 681.468 1141.49 681.917 1140.45 682.392C1138.35 683.329 1136.24 684.23 1134.14 685.081C1133.08 685.498 1132.04 685.942 1130.97 686.301C1129.91 686.668 1128.85 687.027 1127.79 687.367C1125.67 688.053 1123.58 688.681 1121.51 689.246C1120.48 689.541 1119.44 689.766 1118.41 689.985C1117.39 690.205 1116.36 690.407 1115.36 690.586C1113.34 690.953 1111.38 691.245 1109.46 691.456C1105.61 691.796 1101.98 691.778 1098.7 691.397L1098.82 694.817L1098.91 698.211C1097.1 698.776 1093.97 697.395 1091.55 696.969C1090.33 696.754 1089.29 696.799 1088.65 697.422C1088 698.04 1087.76 699.278 1088.15 701.501C1086 703.321 1083.85 705.177 1081.67 707.001C1079.17 707.633 1077.49 709.068 1075.58 710.166C1073.69 711.291 1071.53 711.959 1068.19 711.143L1068.16 711.134C1067.75 711.031 1067.32 710.923 1066.89 710.766C1066.94 710.95 1067.02 711.098 1067.11 711.246C1065.63 711.358 1064.56 711.551 1063.77 711.739C1062.98 711.927 1062.49 712.17 1062.19 712.438C1061.59 712.976 1061.75 713.644 1061.86 714.299C1061.96 714.953 1062.01 715.599 1061.17 716.101C1060.75 716.352 1060.11 716.567 1059.14 716.733C1058.17 716.894 1056.89 717.024 1055.16 717.006C1052.51 715.397 1051.94 717.638 1051.15 720.341C1050.75 721.682 1050.31 723.17 1049.54 724.286C1048.77 725.407 1047.67 726.209 1046 726.254C1044.58 725.048 1043.16 723.838 1041.77 722.627C1040.37 721.395 1038.98 720.144 1037.61 718.902C1036.06 718.58 1034.72 718.445 1033.51 718.459C1032.31 718.468 1031.24 718.589 1030.25 718.853C1028.26 719.36 1026.6 720.404 1024.78 721.529C1023.87 722.103 1022.92 722.726 1021.89 723.362C1021.37 723.681 1020.83 724.003 1020.25 724.317C1019.68 724.622 1019.08 724.922 1018.44 725.218C1017.17 725.805 1015.74 726.379 1014.12 726.868C1012.49 727.33 1010.67 727.72 1008.6 728.006C1006.51 727.433 1004.65 726.545 1003.13 725.424C1001.61 724.29 1000.41 722.901 999.629 721.372C998.051 718.306 998.096 714.626 1000.24 710.959C998.742 713.196 997.8 714.68 997.119 715.711C996.438 716.742 996.007 717.311 995.501 717.764C994.483 718.66 993.098 719.077 988.647 721.354C987.867 719.678 987.715 718.647 987.966 717.638C988.091 717.136 988.315 716.634 988.616 716.065C988.934 715.513 989.324 714.823 989.777 714.034C989.266 713.815 988.791 713.644 988.374 713.501C987.97 713.353 987.603 713.241 987.271 713.16C986.607 713.003 986.078 712.976 985.639 713.048C984.756 713.2 984.294 713.707 983.86 714.348C983.429 714.985 983.057 715.742 982.443 716.338C982.138 716.634 981.762 716.899 981.3 717.073C980.843 717.244 980.292 717.338 979.61 717.315C978.848 720.547 977.969 724.757 977.019 728.159C976.069 731.57 975.024 734.233 974.043 734.43L976.347 736.474C975.536 736.895 974.715 737.285 973.877 737.644C973.039 737.985 972.187 738.28 971.322 738.54C969.596 739.083 967.807 739.379 965.992 739.477C965.539 739.504 965.082 739.513 964.629 739.513C964.168 739.5 963.706 739.468 963.244 739.428C962.316 739.343 961.389 739.199 960.461 738.993C958.596 738.572 956.7 737.81 954.848 736.801L955.539 733.614C954.136 733.726 952.697 733.784 951.267 733.87L949.115 733.991L946.928 734.058L947.044 729.871L944 729.714L940.908 729.486L937.806 729.253C936.775 729.185 935.712 729.055 934.663 728.961L936.143 730.405C935.39 730.391 934.211 730.351 932.781 730.243C931.351 730.131 929.688 729.983 927.922 729.656C926.164 729.347 924.344 728.939 922.65 728.401C920.951 727.85 919.36 727.128 918.096 726.276L918.831 724.084C915.348 721.435 911.775 719.714 908.095 718.66C906.262 718.149 904.366 717.719 902.452 717.432C900.533 717.136 898.579 716.952 896.579 716.809C894.576 716.643 892.527 716.531 890.438 716.419C888.345 716.302 886.216 716.213 884.024 716.007C879.644 715.612 875.081 715.07 870.303 713.77L874.149 710.027C869.115 703.581 870.271 716.414 863.296 711.82L864.641 706.185C860.136 708.74 858.065 707.656 856.671 705.414C855.273 703.168 854.551 699.78 852.682 697.659L852.52 705.567L844.25 701.183C839.817 698.408 839.099 695.651 839.817 693.172C840.534 690.698 842.685 688.511 844.008 686.856C841.211 688.035 838.396 689.169 835.576 690.326L836.432 683.557C832.806 686.44 831.703 685.736 830.309 684.463C828.911 683.194 827.212 681.316 822.339 681.84C822.474 679.209 825.064 678.568 822.568 676.569L814.114 678.635L805.624 680.644C808.873 680.307 812.123 679.998 815.36 679.635L811.128 688.515C805.538 690.492 802.661 689.178 800.298 687.444C797.931 685.7 796.085 683.535 792.503 683.701L797.775 682.49C786.801 681.105 787.653 676.963 782.659 672.871C783.82 675.22 785.631 678.738 781.072 678.456C777.863 677.873 780.602 674.637 778.114 672.588C775.214 678.461 766.71 679.016 761.138 673.709C761.542 672.866 761.99 672.082 762.627 671.687C760.574 672.055 759.117 673.319 756.719 670.751L760.959 664.605L752.909 668.962C749.829 665.703 742.482 668.568 744.687 664.179L747.341 663.619C742.679 661.584 738.022 659.513 733.364 657.442L719.392 651.22L721.055 645.657C715.394 652.018 706.603 636.885 703.977 646.531C700.539 639.417 681.393 641.905 688.61 632.68C670.205 624.607 656.125 630.672 635.367 616.597C633.067 610.572 626.105 606.049 617.929 602.208C609.758 598.366 600.398 595.134 593.307 591.745C563.376 583.923 543.662 579.71 513.503 570.471C507.34 560.721 496.062 557.22 484.322 554.307C478.459 552.841 472.479 551.519 466.979 549.64C461.483 547.753 456.471 545.297 452.536 541.581L445.341 544.248C436.246 531.213 413.233 532.499 399.135 517.406C393.958 517.662 391.434 517.352 390.372 517.097C391.057 517.675 391.851 519.114 390.887 522.346C386.871 518.025 375.66 516.326 379.071 510.508L380.604 510.431C381.46 508.979 380.868 508.02 379.456 507.276C378.748 506.904 377.834 506.585 376.794 506.285C375.866 505.971 374.893 505.639 373.885 505.294C372.858 504.958 371.8 504.608 370.715 504.25C366.385 502.829 361.764 501.296 357.685 499.494C353.601 497.687 350.037 495.594 347.706 492.981C349.199 496.253 350.584 499.48 351.853 502.654L343.775 498.418L339.705 496.284L337.661 495.213L336.639 494.68C336.594 494.666 336.554 494.612 336.509 494.635L336.374 494.666L336.105 494.729L335.568 494.85L336.155 494.491C336.352 494.397 336.554 494.182 336.738 494.267L337.872 494.393L340.158 494.653C339.01 494.411 337.872 494.169 336.742 493.927L336.639 493.904L336.585 493.891L336.531 493.918L336.312 494.03L335.872 494.249L335.003 494.684C334.424 494.971 333.851 495.258 333.281 495.54C331 496.67 328.781 497.741 326.62 498.763C322.295 500.807 318.193 502.645 314.239 504.317C310.29 505.989 306.494 507.495 302.795 508.876C301.872 509.212 300.953 509.548 300.043 509.884C299.586 510.046 299.133 510.212 298.68 510.373L298.004 510.611L297.757 510.7L297.56 510.777C296.497 511.18 295.444 511.561 294.395 511.92C286.008 514.788 278.047 516.245 270.153 517.635C254.366 520.414 238.852 522.933 220.8 535.951C223.893 526.856 214.041 542.271 211.055 534.243C197.8 526.994 192.896 542.123 185.388 547.372C185.509 547.776 185.549 548.278 185.262 549.049L170.403 552.446C175.992 539.478 162.495 564.182 167.839 552.975C150.213 554.58 131.27 559.838 111.766 566.056C102.017 569.162 92.1235 572.51 82.1857 575.76C77.219 577.388 72.2389 578.988 67.2587 580.521C64.7709 581.287 62.2786 582.036 59.7908 582.767L57.926 583.309L56.9937 583.578L56.5275 583.712L56.4109 583.744L56.3616 583.757L56.2854 583.775L55.6713 583.923C55.4651 583.963 55.2634 584.013 55.0572 584.062C54.8151 584.076 54.573 584.098 54.3355 584.116L53.9769 584.134L53.7976 584.147L53.7079 584.156L53.4838 584.183C52.0269 584.367 50.5701 584.537 49.1178 584.699C46.2131 585.021 43.3218 585.304 40.444 585.537L42.878 587.957C31.304 589.302 17.5515 594.959 8.12015 591.996C-1.31566 589.042 -9.81462 602.069 -13.1272 603.055C-21.9131 609.335 -32.1378 601.356 -27.9556 601.172C-37.9607 604.144 -45.98 615.458 -60.8397 613.584C-67.1602 605.327 -98.0765 628.758 -100.161 618.636L-100.174 619.519C-119.503 615.297 -134.645 630.3 -155.261 626.987C-155.261 626.987 -155.01 626.176 -154.458 625.382L-189.225 662.789L-172.348 694.979L-133.35 717.002L-40.8295 695.786L35.5535 694.441L55.1468 690.846L64.9412 689.048L69.8407 688.147L78.7028 686.601C80.1058 686.175 81.5089 685.731 82.9074 685.292L85.0097 684.642L86.8431 684.059L91.1329 682.674L99.7081 679.908L116.863 674.377L151.168 663.309L219.783 641.175L230.129 629.941C249.399 631.25 269.006 624.827 288.814 617.834C298.716 614.337 308.668 610.698 318.65 607.815C321.147 607.094 323.644 606.421 326.141 605.807L326.374 605.749L326.477 605.726H326.495L326.567 605.735L326.71 605.753C326.809 605.767 326.903 605.785 327.001 605.807C327.194 605.852 327.382 605.915 327.566 605.995C328.306 606.327 328.974 606.977 329.355 608.129C329.471 605.762 329.619 603.386 329.79 601.006L329.888 600.961C329.92 600.943 329.951 600.934 329.978 600.952C330.036 600.975 330.09 600.997 330.144 601.029C330.251 601.087 330.35 601.154 330.44 601.239C330.619 601.405 330.758 601.611 330.865 601.849C331.081 602.329 331.157 602.929 331.166 603.552C331.179 604.798 330.946 606.148 330.955 606.793C331.318 606.905 331.69 607.008 332.076 607.111L332.219 607.152C332.309 607.183 332.165 607.111 332.681 607.331L334.913 608.259L339.382 610.115C345.353 612.567 351.333 615.01 357.331 617.421C369.33 622.245 381.375 626.987 393.429 631.671C417.531 641.04 441.648 650.184 465.383 659.374C512.867 677.739 558.822 696.279 600.295 717.235C603.63 720.928 611.846 724.68 619.848 728.343C627.849 731.996 635.618 735.595 638.034 739.051C669.075 742.337 698.822 753.804 726.99 765.073L725.659 765.369L739.519 769.071C739.9 769.793 739.698 770.568 739.089 770.896C743.374 770.896 747.987 771.747 752.738 773.204C755.114 773.93 757.535 774.8 759.973 775.782C762.416 776.759 764.895 777.83 767.374 778.978C772.336 781.273 777.312 783.864 782.22 786.383C787.119 788.916 791.889 791.444 796.448 793.604L795.107 793.923C798.559 795.115 802.002 796.303 805.44 797.486C808.909 798.625 812.37 799.763 815.826 800.902C819.273 802.036 822.765 803.116 826.248 804.192C829.735 805.264 833.191 806.339 836.715 807.357C850.7 811.494 864.856 815.273 879.362 818.653C893.854 822.033 908.75 824.996 924.394 827.273C932.234 828.389 940.235 829.366 948.555 829.985C956.843 830.621 965.391 830.949 973.971 830.859C982.537 830.778 991.09 830.258 998.979 829.523C1000.98 829.353 1002.91 829.133 1004.87 828.936C1006.82 828.748 1008.78 828.501 1010.74 828.273L1013.67 827.927L1016.6 827.537C1018.56 827.269 1020.52 827.04 1022.46 826.731C1030.27 825.623 1038.01 824.229 1045.73 822.772C1053.42 821.217 1061.11 819.599 1068.71 817.721C1099.17 810.356 1128.85 800.508 1158.4 789.095C1172.89 785.321 1186.96 779.036 1200.65 771.398C1202.35 770.434 1204.06 769.452 1205.76 768.462C1207.46 767.462 1209.19 766.48 1210.84 765.405C1214.18 763.289 1217.52 761.119 1220.86 758.914C1222.54 757.825 1224.17 756.668 1225.8 755.511C1227.43 754.35 1229.07 753.185 1230.71 752.015C1232.35 750.841 1233.98 749.662 1235.62 748.483C1237.25 747.29 1238.84 746.044 1240.46 744.825C1243.67 742.364 1246.89 739.894 1250.12 737.415C1253.28 734.878 1256.46 732.332 1259.65 729.782L1262.05 727.876C1262.85 727.244 1263.66 726.617 1264.43 725.958C1266.01 724.662 1267.58 723.367 1269.16 722.072C1270.74 720.785 1272.33 719.499 1273.92 718.212L1276.32 716.293L1277.52 715.339L1278.7 714.361C1281.84 711.757 1285.02 709.18 1288.23 706.642L1290.65 704.746C1291.46 704.119 1292.27 703.496 1293.06 702.846C1294.65 701.564 1296.25 700.291 1297.87 699.031C1301.09 696.512 1304.38 694.046 1307.69 691.617C1310.95 689.138 1314.26 686.713 1317.64 684.351C1318.59 684.118 1319.95 683.418 1321.67 682.325C1322.52 681.773 1323.47 681.132 1324.48 680.379C1325.48 679.622 1326.56 678.765 1327.7 677.829C1329.99 675.95 1332.56 673.727 1335.35 671.226C1336.75 669.975 1338.2 668.653 1339.69 667.272C1341.15 665.865 1342.65 664.39 1344.19 662.861C1345.72 661.324 1347.3 659.741 1348.92 658.123C1349.72 657.307 1350.53 656.482 1351.36 655.649L1351.67 655.335L1351.71 655.295C1351.71 655.295 1351.74 655.268 1351.73 655.277L1351.7 655.304L1351.66 655.353C1351.6 655.416 1351.54 655.478 1351.48 655.541L1351.39 655.631V655.644C1351.36 655.644 1351.35 655.64 1351.31 655.586C1351.23 655.492 1351.13 655.245 1351.1 654.788C1351.09 654.241 1351.36 653.645 1351.92 653.121C1352.06 652.986 1352.21 652.861 1352.37 652.731C1352.41 652.699 1352.45 652.668 1352.49 652.636L1352.56 652.592L1352.59 652.569L1352.6 652.556L1352.64 652.565L1352.73 652.596C1353.65 652.914 1354.52 653.215 1355.34 653.493C1358.6 654.586 1360.95 655.268 1362.13 655.443L1362.09 655.416Z" fill="black"/>
<path d="M1314.53 561.04C1314.8 560.775 1315.05 560.524 1315.3 560.278C1313.84 559.923 1312.35 559.614 1310.81 559.354C1312.08 559.883 1313.32 560.443 1314.53 561.04Z" fill="black"/>
</g>
<defs>
<clipPath id="clip0_11_153">
<rect width="1926" height="1020.04" fill="white" transform="translate(-238 0.547668)"/>
</clipPath>
</defs>
</svg>
